<?xml version="1.0" encoding="UTF-8" standalone="no"?>
<!DOCTYPE svg PUBLIC "-//W3C//DTD SVG 1.1//EN" "http://www.w3.org/Graphics/SVG/1.1/DTD/svg11.dtd">
<svg width="100%" height="100%" viewBox="0 0 121 111" version="1.1" xmlns="http://www.w3.org/2000/svg" xmlns:xlink="http://www.w3.org/1999/xlink" xml:space="preserve" xmlns:serif="http://www.serif.com/" style="fill-rule:evenodd;clip-rule:evenodd;stroke-linecap:round;stroke-linejoin:round;stroke-miterlimit:1.5;">
    <g transform="matrix(1,0,0,1,-1676.515252,-6988.437103)">
        <g transform="matrix(3.698143,0,0,3.698143,799.427994,5559.921215)">
            <g transform="matrix(0.286615,0.037633,-0.037633,0.286615,66.067196,-411.765531)">
                <g transform="matrix(0.442927,0,0,0.442927,-3869.69622,1320.882601)">
                    <path d="M11031.163,3073.514C11031.163,3073.514 11045.186,3059.886 11060.242,3047.354C11071.613,3037.891 11083.89,3029.976 11090.528,3027.179C11109.351,3019.249 11128.551,3032.631 11128.158,3047.398C11127.86,3058.572 11125.394,3071.823 11125.125,3083.904C11124.844,3096.494 11129.668,3111.41 11127.371,3124.196C11125.774,3133.089 11111.438,3143.805 11097.687,3142.02C11091.373,3141.2 11078.929,3140.669 11066.699,3135.211C11048.222,3126.964 11030.995,3113.62 11030.995,3113.62C11036.163,3118.346 11048.562,3125.542 11048.562,3125.542C11048.562,3125.542 11085.094,3175.877 11105.299,3198.14C11090.584,3200.5 11077.928,3199.564 11066.209,3197.129C11065.634,3209.372 11062.573,3220.233 11056.605,3229.479C11033.255,3197.297 11019.598,3161.279 11010.776,3122.657L11030.995,3113.62L11030.77,3102.943C11044.655,3098.776 11056.065,3103.513 11066.939,3107.774C11056.192,3103.404 11044.516,3099.518 11030.77,3102.943L11030.995,3095.418C11046.9,3084.202 11065.861,3078.757 11087.158,3077.726C11066.047,3078.245 11047.314,3084.115 11030.995,3095.418L11031.163,3073.514Z" style="fill:rgb(255,95,93);"/>
                    <path d="M11070.34,3202.499C11069.64,3209.102 11067.583,3220.455 11060.997,3230.985C11060.941,3231.076 11059.644,3233.911 11056.735,3233.995C11053.867,3234.077 11052.508,3231.527 11051.841,3230.592C11031.043,3201.441 11016.537,3167.34 11006.843,3125.478C11006.795,3125.273 11006.34,3123.31 11006.318,3122.9C11006.196,3120.621 11007.942,3119.114 11008.285,3118.956C11014.331,3116.172 11020.454,3113.557 11026.5,3110.772C11026.538,3104.385 11026.181,3102.694 11026.565,3101.486C11026.566,3097.036 11026.639,3095.452 11026.757,3094.691C11026.736,3090.726 11026.653,3073.81 11026.824,3072.786C11026.843,3072.677 11026.964,3071.951 11027.267,3071.471C11027.513,3071.079 11027.85,3070.75 11028.097,3070.359C11057.365,3042.285 11072.666,3031.718 11083.287,3025.836C11084.78,3025.009 11099.28,3015.671 11116.015,3023.48C11126.208,3028.236 11132.879,3037.701 11132.609,3047.506C11132.184,3062.909 11128.545,3077.419 11129.933,3091.398C11131.044,3102.59 11134.817,3120.032 11130.342,3129.321C11125.541,3139.285 11111.039,3148.136 11097.494,3146.52C11085.556,3145.095 11077.233,3144.76 11064.071,3138.939C11076.249,3155.251 11094.905,3179.763 11107.708,3194.061C11107.858,3194.229 11110.441,3196.37 11109.669,3199.294C11108.938,3202.065 11106.39,3202.534 11106.001,3202.606C11098.053,3204.07 11089.128,3204.028 11087.656,3204.021C11080.822,3203.989 11074.508,3203.182 11070.34,3202.499ZM11035.218,3106.382C11035.25,3108.439 11035.299,3109.989 11035.334,3111.185C11036.566,3112.092 11037.031,3112.497 11039.045,3113.912C11050.564,3122.008 11065.018,3130.443 11074.906,3133.505C11077.959,3134.451 11082.147,3135.922 11098.786,3137.627C11109.564,3138.732 11121.848,3130.309 11123.052,3122.88C11125.073,3110.399 11120.046,3097.345 11120.737,3081.434C11121.313,3068.179 11124.545,3049.71 11123.47,3044.492C11121.35,3034.202 11106.611,3024.213 11090.459,3032.081C11084.945,3034.766 11076.162,3040.384 11067.264,3047.361C11055.794,3056.355 11040.485,3070.726 11035.53,3075.422L11035.314,3087.471C11049.504,3079.079 11061.654,3076.814 11064.179,3076.344C11074.152,3074.485 11082.667,3074.278 11086.105,3074.208C11086.497,3074.166 11088.933,3073.901 11090.153,3075.849C11091.339,3077.743 11090.54,3080.927 11087.341,3081.262C11082.603,3081.758 11074.969,3082.081 11058.381,3087.06C11047.429,3090.347 11039.882,3094.746 11035.924,3097.305C11041.936,3096.462 11046.131,3097.195 11047.129,3097.369C11055.877,3098.897 11063.034,3102.656 11068.018,3105.022L11068.009,3105.046C11068.018,3105.05 11068.027,3105.055 11068.036,3105.059C11071.451,3106.626 11069.665,3111.721 11065.86,3110.525C11057.92,3108.03 11051.397,3106.184 11045.546,3105.889C11040.818,3105.651 11038.552,3105.662 11035.218,3106.382ZM11030.172,3118.878C11027.776,3119.91 11023.612,3121.694 11015.964,3125.188C11019.152,3138.53 11025.959,3165.196 11039.805,3192.97C11046.048,3205.493 11052.033,3214.923 11056.139,3220.956C11061.053,3210.573 11061.25,3201.981 11061.697,3196.903C11061.95,3194.023 11064.333,3192.239 11067.109,3192.701C11067.917,3192.836 11075.303,3194.56 11084.801,3194.916C11089.15,3195.08 11093.057,3194.927 11096.26,3194.676C11088.501,3185.58 11072.814,3166.347 11045.459,3128.95C11042.704,3127.301 11034.709,3122.445 11030.172,3118.878Z" style="fill:rgb(153,90,82);"/>
                </g>
                <g transform="matrix(-0.442927,0,0,0.442927,5882.641668,1319.996747)">
                    <path d="M11031.163,3073.514C11031.163,3073.514 11042.94,3058.089 11057.996,3045.557C11069.366,3036.093 11083.89,3029.976 11090.528,3027.179C11109.351,3019.249 11128.551,3032.631 11128.158,3047.398C11127.86,3058.572 11125.394,3071.823 11125.125,3083.904C11124.844,3096.494 11129.668,3111.41 11127.371,3124.196C11125.774,3133.089 11111.438,3143.805 11097.687,3142.02C11091.373,3141.2 11078.929,3140.669 11066.699,3135.211C11048.222,3126.964 11030.995,3113.62 11030.995,3113.62C11036.163,3118.346 11056.665,3130.222 11056.665,3130.222C11054.288,3130.618 11091.257,3172.94 11113.836,3196.343C11099.121,3198.703 11087.364,3197.093 11075.645,3194.658C11075.069,3206.9 11069.312,3219.783 11063.345,3229.03C11043.14,3197.522 11025.916,3160.928 11017.094,3122.306L11030.995,3113.62L11030.77,3102.943C11044.655,3098.776 11056.065,3103.513 11066.939,3107.774C11056.192,3103.404 11044.516,3099.518 11030.77,3102.943L11030.995,3095.418C11046.9,3084.202 11065.861,3078.757 11087.158,3077.726C11066.047,3078.245 11047.314,3084.115 11030.995,3095.418L11031.163,3073.514Z" style="fill:rgb(255,95,93);"/>
                    <path d="M11070.647,3141.561C11071.583,3141.886 11072.507,3142.184 11073.415,3142.452C11082.138,3145.03 11089.605,3145.611 11097.494,3146.52C11112.58,3148.257 11129.824,3137.14 11131.896,3124.31C11134.187,3110.123 11129.03,3096.67 11129.663,3081.818C11130.251,3068.005 11133.589,3050.578 11132.284,3043.198C11129.444,3027.13 11108.861,3014.672 11088.821,3023.089C11067.775,3031.929 11056.813,3039.051 11041.358,3055.124C11034.274,3062.49 11028.713,3069.521 11027.679,3070.827C11027.489,3071.261 11027.195,3071.645 11027.004,3072.079C11026.779,3072.592 11026.766,3073.366 11026.764,3073.48C11026.719,3076.09 11026.71,3089.968 11026.775,3094.601C11026.734,3094.815 11026.705,3095.045 11026.696,3095.289C11026.591,3098.201 11026.563,3100.158 11026.572,3101.474C11026.179,3102.702 11026.541,3104.455 11026.509,3111.195C11014.665,3118.635 11014.317,3118.308 11013.291,3119.988C11012.043,3122.034 11013.088,3124.77 11013.174,3125.137C11017.582,3143.952 11028.697,3182.899 11058.587,3229.971C11058.789,3230.289 11060.042,3233.051 11062.59,3233.483C11065.43,3233.965 11066.922,3231.796 11067.148,3231.468C11067.531,3230.911 11071.209,3225.172 11074.078,3218.608C11077.618,3210.508 11079.028,3204.348 11079.648,3200.042C11088.011,3201.585 11099.247,3203.043 11113.116,3201.026C11113.301,3200.999 11116.757,3200.974 11117.984,3198.139C11119.143,3195.461 11117.363,3193.505 11117.093,3193.209C11117.011,3193.12 11106.824,3182.658 11091.004,3164.96C11084.824,3158.047 11076.907,3149.027 11070.647,3141.561ZM11035.536,3075.083C11044.157,3064.322 11056.723,3051.1 11067.669,3043.885C11069.569,3042.633 11078.75,3036.583 11093.007,3030.958C11108.043,3025.026 11123.986,3035.575 11123.706,3047.289C11123.379,3060.965 11119.618,3077.057 11120.972,3091.604C11121.921,3101.79 11125.46,3119.317 11122.116,3125.735C11118.871,3131.963 11108.435,3138.751 11098.525,3137.599C11083.996,3135.909 11076.113,3135.683 11059.178,3126.476C11059.101,3126.422 11059.023,3126.37 11058.941,3126.318C11057.904,3125.662 11050.337,3121.345 11043.412,3116.903C11040.039,3114.65 11037.257,3112.661 11035.363,3111.261C11035.336,3110.113 11035.296,3108.545 11035.252,3106.36C11037.876,3105.872 11042.047,3105.452 11047.622,3106.03C11054.171,3106.71 11062.315,3109.451 11065.547,3110.384C11065.647,3110.42 11065.746,3110.455 11065.842,3110.49L11065.85,3110.47C11066.355,3110.611 11066.704,3110.693 11066.864,3110.696C11069.902,3110.757 11071.184,3106.491 11068.04,3105.049C11067.844,3104.959 11067.65,3104.87 11067.456,3104.783C11062.24,3102.285 11054.84,3098.499 11045.868,3097.187C11042.786,3096.736 11039.121,3096.898 11035.909,3097.328C11040.755,3094.196 11048.924,3089.512 11061.787,3086.104C11061.993,3086.05 11072.354,3082.596 11086.358,3081.338C11086.587,3081.317 11089.192,3081.474 11090.294,3079.357C11091.39,3077.251 11090.102,3074.219 11087.057,3074.191C11085.057,3074.172 11082.991,3074.256 11081.034,3074.389C11075.943,3074.65 11068.592,3075.307 11060.37,3077.128C11059.891,3077.234 11051.311,3079.304 11041.565,3084.099C11039.412,3085.158 11037.263,3086.333 11035.314,3087.475L11035.536,3075.083ZM11052.878,3133.301C11052.898,3133.339 11052.919,3133.376 11052.941,3133.414C11056.487,3139.631 11080.819,3167.884 11104.289,3192.847C11096.995,3193.291 11089.083,3192.776 11077.642,3190.456C11077.625,3190.452 11074.41,3189.316 11072.313,3191.607C11070.433,3193.66 11071.737,3195.379 11069.792,3203.405C11068.176,3210.072 11065.45,3216.083 11063.21,3220.323C11057.868,3211.651 11048.698,3195.974 11040.066,3176.513C11029.152,3151.91 11024.2,3132.786 11022.164,3124.353C11024.961,3122.582 11027.779,3120.843 11030.58,3119.077C11032.784,3120.721 11035.681,3122.658 11038.695,3124.587C11043.137,3127.551 11047.97,3130.562 11052.878,3133.301Z" style="fill:rgb(153,90,82);"/>
                </g>
                <g transform="matrix(0.44207,-0.02754,0.02754,0.44207,-3945.491795,1626.706675)">
                    <path d="M10990.273,3072.573C10996.563,3065.474 11022.653,3066.762 11028.553,3074.01C11034.454,3081.259 11031.981,3107.899 11027.475,3116.245C11023.379,3123.832 10997.574,3123.426 10989.554,3115.706C10982.82,3109.224 10983.982,3079.672 10990.273,3072.573Z" style="fill:rgb(255,95,93);stroke:rgb(153,90,82);stroke-width:8.8px;"/>
                </g>
            </g>
        </g>
    </g>
</svg>
